Coordinates
version=1
nRows=11
nColumns=40
inDegrees=yes

Units are S.I. units (second, meters, Newtons, ...)
Angles are in degrees.

endheader
time	pelvis_tilt	pelvis_list	pelvis_rotation	pelvis_tx	pelvis_ty	pelvis_tz	hip_flexion_r	hip_adduction_r	hip_rotation_r	knee_angle_r	knee_angle_r_beta	ankle_angle_r	subtalar_angle_r	mtp_angle_r	hip_flexion_l	hip_adduction_l	hip_rotation_l	knee_angle_l	knee_angle_l_beta	ankle_angle_l	subtalar_angle_l	mtp_angle_l	lumbar_extension	lumbar_bending	lumbar_rotation	arm_flex_r	arm_add_r	arm_rot_r	elbow_flex_r	pro_sup_r	wrist_flex_r	wrist_dev_r	arm_flex_l	arm_add_l	arm_rot_l	elbow_flex_l	pro_sup_l	wrist_flex_l	wrist_dev_l
     40.45500000	     -5.35241497	     -7.78797892	      1.28251026	      1.05680116	      0.92594982	      0.49377638	     10.59113307	      6.59364305	    -15.23602356	     16.28640943	     16.28640943	     12.49731657	     -1.25517418	     -0.62938522	     38.82400199	    -15.50028158	      3.77412034	     65.51367726	     65.51367726	      6.52508569	    -19.42219361	     20.11938438	    -11.76263585	      5.51589132	      2.81854951	     15.29733401	    -14.71617262	     -0.37367501	     63.20981698	     45.08313484	      0.00000000	      0.00000000	      3.40518950	     -6.92414060	     -7.62350555	     29.74024853	     46.94508205	      0.00000000	      0.00000000
     40.46657143	     -5.43495121	     -7.62338558	      1.50124941	      1.05554925	      0.92609893	      0.49367060	      9.93720152	      6.49693794	    -15.24671732	     15.79140699	     15.79140699	     12.74324091	     -1.17927576	     -0.65030869	     39.72728464	    -14.94166178	      3.55009714	     62.84211738	     62.84211738	      7.20665367	    -19.38850908	     20.03693861	    -11.82455002	      5.23716301	      2.75366625	     17.61705626	    -14.76898469	     -0.69100264	     64.92768884	     45.04988883	      0.00000000	      0.00000000	      2.30040637	     -6.77479986	     -7.55460947	     28.63590164	     46.91062108	      0.00000000	      0.00000000
     40.47814286	     -5.56915344	     -7.46165069	      1.72384474	      1.05423065	      0.92613507	      0.49330473	      9.32058113	      6.37544171	    -15.33925297	     15.25882634	     15.25882634	     12.95399508	     -0.98368467	     -0.70088634	     40.50611795	    -14.21398663	      3.53594588	     59.85777070	     59.85777070	      7.70726323	    -19.30124001	     19.84991108	    -11.83268653	      5.02397937	      2.57626185	     19.90322547	    -14.80294856	     -0.80855534	     66.95665980	     44.99894761	      0.00000000	      0.00000000	      1.23730510	     -6.63194468	     -7.43347752	     27.36822090	     46.86932487	      0.00000000	      0.00000000
     40.48971429	     -5.69281188	     -7.33935822	      1.95859716	      1.05293226	      0.92606479	      0.49267164	      8.67658003	      6.25410913	    -15.60325516	     14.71228414	     14.71228414	     13.14893465	     -0.51015390	     -0.87445338	     41.08699164	    -13.39528758	      3.75555971	     56.58767760	     56.58767760	      7.90774749	    -19.15237787	     19.11132519	    -11.85409835	      4.93440056	      2.36541544	     22.02062556	    -14.98829967	     -0.51135616	     69.85049581	     44.90791995	      0.00000000	      0.00000000	      0.33668392	     -6.45529576	     -7.18523647	     25.71679915	     46.80730141	      0.00000000	      0.00000000
     40.50128571	     -5.88007283	     -7.09445067	      2.11382082	      1.05161741	      0.92593411	      0.49189064	      8.15350906	      5.99347942	    -15.69633603	     14.27316486	     14.27316486	     13.38772337	     -0.20647670	     -1.00292651	     41.46305934	    -12.40470344	      4.07853160	     53.03411038	     53.03411038	      8.02392953	    -18.89460373	     18.52973574	    -11.80473959	      4.65572315	      2.51708701	     24.05217083	    -15.30111923	     -0.43087757	     71.97850166	     44.84844818	      0.00000000	      0.00000000	     -0.59157915	     -6.31567459	     -7.01854871	     24.85185308	     46.75700793	      0.00000000	      0.00000000
     40.51285714	     -6.05704049	     -6.98011446	      2.28364640	      1.05046360	      0.92556534	      0.49090745	      7.57144673	      5.83534826	    -16.07279609	     13.77437636	     13.77437636	     13.62655946	      0.51111045	     -1.24526718	     41.67272909	    -11.54349778	      4.61325964	     49.32107551	     49.32107551	      7.83123084	    -18.30881329	     16.67717617	    -11.79688983	      4.60292108	      2.53411810	     25.97391406	    -15.77189710	      0.08312932	     75.32940666	     44.74102793	      0.00000000	      0.00000000	     -1.58849622	     -6.14950721	     -6.63607310	     24.04189911	     46.65847066	      0.00000000	      0.00000000
     40.52442857	     -6.25212083	     -6.83347490	      2.36459330	      1.04942479	      0.92506016	      0.48994215	      7.04985217	      5.64352360	    -16.31418135	     13.37393056	     13.37393056	     13.88893519	      1.11691206	     -1.52529138	     41.61304653	    -10.81306079	      5.03430751	     45.30456053	     45.30456053	      6.90664846	    -17.44425939	     12.94398190	    -11.75825311	      4.46345640	      3.22379280	     27.39682177	    -16.92581947	      0.59230411	     78.80396978	     44.65501323	      0.00000000	      0.00000000	     -2.57166481	     -6.08790811	     -5.61400777	     24.21360413	     46.41234315	      0.00000000	      0.00000000
     40.53600000	     -6.52201239	     -6.71086581	      2.43199974	      1.04841215	      0.92433828	      0.48885842	      6.65421298	      5.50041639	    -16.29066734	     13.04467274	     13.04467274	     14.17554602	      1.21997335	     -1.59696979	     41.64392920	    -10.11213901	      5.62679684	     41.58566547	     41.58566547	      7.43971582	    -15.88365103	     12.91357143	    -11.53907220	      4.36558089	      3.50444831	     29.65859608	    -17.14042505	      0.27165857	     80.03809773	     44.63854314	      0.00000000	      0.00000000	     -3.52665716	     -5.92974938	     -5.49052838	     23.91396967	     46.36835663	      0.00000000	      0.00000000
     40.54757143	     -6.53772118	     -6.70065216	      2.53012904	      1.04790701	      0.92378207	      0.48773107	      5.78895453	      5.50511267	    -16.52462285	     12.41116898	     12.41116898	     14.46501461	      1.94123380	     -1.65342910	     41.27152093	     -9.71422864	      6.02894170	     37.92028931	     37.92028931	      7.79800916	    -13.81348046	     12.01687709	    -11.65701572	      4.40838890	      3.22306940	     31.78718937	    -16.89478359	      0.61578983	     82.80566894	     44.56169217	      0.00000000	      0.00000000	     -5.05697098	     -5.91978019	     -4.98224899	     24.23967831	     46.22411884	      0.00000000	      0.00000000
     40.55914286	     -6.62493121	     -6.58588147	      2.50597634	      1.04757167	      0.92301689	      0.48658497	      5.12745849	      5.36844465	    -16.53608293	     12.06502479	     12.06502479	     14.83084329	      2.26416931	     -1.74757702	     40.78709615	     -9.34194286	      6.20006493	     34.33041982	     34.33041982	      8.19139055	    -11.89999220	     11.90488400	    -11.63190364	      4.32209722	      3.41149251	     33.75693317	    -17.02370446	      0.71347048	     84.54237734	     44.51904672	      0.00000000	      0.00000000	     -6.26346653	     -5.88408462	     -4.69014281	     24.42208906	     46.13621751	      0.00000000	      0.00000000
     40.57071429	     -6.69334262	     -6.57262433	      2.50503476	      1.04746067	      0.92199829	      0.48528734	      4.39479442	      5.34368192	    -16.58884308	     11.63550100	     11.63550100	     15.17982248	      2.70732628	     -1.81202649	     40.29879571	     -9.09933002	      6.31521289	     31.13172363	     31.13172363	      8.56189308	    -10.04804859	     11.88506905	    -11.56819565	      4.34735051	      3.47483526	     35.74316713	    -17.05125111	      0.97786939	     86.57573863	     44.46288260	      0.00000000	      0.00000000	     -7.54825300	     -5.80414853	     -4.32749109	     24.83828682	     46.03180634	      0.00000000	      0.00000000
